 http://img84.imageshack.us/img84/295/jdateposter.jpg



IMDB:  
http://www.imdb.com/title/tt1783732/

PLOT INFO:
A new street drug that sends its users across time and dimensions has one drawback: some people return as no longer human. Can two college dropouts save humankind from this silent, otherworldly invasion?

MEDIAINFO:
General
Complete name                            : John.Dies.At.The.End.2012.REAL.HDRiP.ReadNfo.AC3-2.0.XviD-AXED.avi
Format                                   : AVI
Format/Info                              : Audio Video Interleave
File size                                : 1.37 GiB
Duration                                 : 1h 39mn
Overall bit rate                         : 1 969 Kbps

Video
ID                                       : 0
Format                                   : MPEG-4 Visual
Format profile                           : Advanced Simple@L5
Format settings, BVOP                    : 2
Format settings, QPel                    : No
Format settings, GMC                     : No warppoints
Format settings, Matrix                  : Default (H.263)
Muxing mode                              : Packed bitstream
Codec ID                                 : XVID
Codec ID/Hint                            : XviD
Duration                                 : 1h 39mn
Bit rate                                 : 1 769 Kbps
Width                                    : 720 pixels
Height                                   : 400 pixels
Display aspect ratio                     : 16:9
Frame rate                               : 23.976 fps
Color space                              : YUV
Chroma subsampling                       : 4:2:0
Bit depth                                : 8 bits
Scan type                                : Progressive
Compression mode                         : Lossy
Bits/(Pixel*Frame)                       : 0.256
Stream size                              : 1.23 GiB (90%)
Writing library                          : XviD 64

Audio
ID                                       : 1
Format                                   : AC-3
Format/Info                              : Audio Coding 3
Mode extension                           : CM (complete main)
Format settings, Endianness              : Big
Codec ID                                 : 2000
Duration                                 : 1h 39mn
Bit rate mode                            : Constant
Bit rate                                 : 192 Kbps
Channel(s)                               : 2 channels
Channel positions                        : Front: L R
Sampling rate                            : 48.0 KHz
Bit depth                                : 16 bits
Compression mode                         : Lossy
Stream size                              : 137 MiB (10%)
Alignment                                : Aligned on interleaves
Interleave, duration                     : 64 ms (1.53 video frames)
Interleave, preload duration             : 192 ms
Title                                    : johndiesattheend




SOURCE: 
720p wmv Digital VOD Rental


ReadNfo NOTES: 
The "HDRiP" that was released earlier is not an HDRiP, obviously, and this one is. Enjoy a release that's not a lie from a group who has proven that their sources are what they claim to be time and time again.

AXED! - The only name to trust for VOD/HDRiP!


 
http://imageshack.us/a/img221/4738/scrncp00005.png 
http://imageshack.us/a/img842/469/scrncp00010c.png 
http://imageshack.us/a/img4/5965/scrncp00013.png 
http://imageshack.us/a/img560/9346/scrncp00035.png
